<svg
  xmlns="http://www.w3.org/2000/svg" viewBox="0 0 760 256">
  <title>logo</title>
  <path d="M324.12,93.05c0,2.39-2.81,7.8-4.78,7.8-1.46,0-4.89-3.12-12.38-3.12-8,0-11,3.75-11,8,0,6.45,5.72,8.43,12.28,11,8.73,3.54,19.13,7.7,19.13,21.85,0,15.39-11,21.84-23.29,21.84-14.46,0-23.4-5.31-23.4-8.53,0-2.71,3.64-8,5.4-8s7.08,5,16.23,5c5.72,0,11.23-2.6,11.23-9.05,0-7-8-9.15-15.91-12.58s-15.5-7.8-15.5-20.7c0-13.62,11.23-20.38,24-20.38C315.28,86.19,324.12,89.52,324.12,93.05Z" fill="#2c3e50"/>
  <path d="M351.89,95v10.29h6.44c2,0,2.81,1.36,2.81,4.48v1.56c0,3.12-.83,4.47-2.81,4.47h-6.44v28.5c0,4.26,1.66,5.72,4.47,5.72a27.67,27.67,0,0,0,3.43-.52c1.87,0,2.81,5.72,2.81,6.55,0,4.06-6,4.37-9.05,4.37-8.11,0-14.56-4.16-14.56-15.92v-28.7h-3c-1.87,0-2.7-1.35-2.7-4.47V109.8c0-3.12.83-4.48,2.7-4.48h3L340.24,95c.31-1.87,1.87-2.91,4.78-2.91h2.5C350.64,92.12,351.89,93.16,351.89,95Z" fill="#2c3e50"/>
  <path d="M402.64,109.59c0,2-1,7.59-2.81,7.59-1.46,0-2.6-.93-5.2-.93-4.68,0-8,4.36-8.74,5.61V157c0,1.88-1.66,2.92-5.51,2.92h-2c-3.85,0-5.52-1-5.52-2.92V122.69c0-9.67-1.25-12.58-1.25-14,0-2.29,7.28-3,9.47-3,3,0,3.33,4.16,3.95,6.76,2.7-4.27,6.14-7.8,11.65-7.8C401.39,104.6,402.64,107.51,402.64,109.59Z" fill="#2c3e50"/>
  <path d="M454,108v34.42c0,10,1.25,12.8,1.25,14.36,0,2.28-7.28,3-9.36,3-3.12,0-3.43-4.37-4.06-7.17a20.8,20.8,0,0,1-15.7,7.8c-10.5,0-15.91-5.62-15.91-16.85V108c0-1.87,1.66-2.91,5.51-2.91h2c3.84,0,5.51,1,5.51,2.91v33.8c0,4.89,2.39,7.8,7.8,7.8,4.37,0,8-3.33,10.09-6.45V108c0-1.87,1.66-2.91,5.41-2.91h2.08C452.45,105.12,454,106.16,454,108Z" fill="#2c3e50"/>
  <path d="M508.82,110.84c0,1.87-3.12,7.17-4.68,7.17a5.73,5.73,0,0,1-1.66-.62A21.12,21.12,0,0,0,492.6,115c-8.64,0-13,5.3-13,17.37s3.64,17.68,13,17.68a23.42,23.42,0,0,0,10.71-2.5,9.06,9.06,0,0,1,1.66-.62c2,0,4.68,5.09,4.68,7,0,4.58-12.06,6.56-17.47,6.56-17.47,0-26-8.64-26-27.77,0-19.66,9.78-28.08,26-28.08C499.77,104.6,508.82,106.89,508.82,110.84Z" fill="#2c3e50"/>
  <path d="M533.88,95v10.29h6.45c2,0,2.81,1.36,2.81,4.48v1.56c0,3.12-.83,4.47-2.81,4.47h-6.45v28.5c0,4.26,1.67,5.72,4.47,5.72a27.59,27.59,0,0,0,3.44-.52c1.87,0,2.8,5.72,2.8,6.55,0,4.06-6,4.37-9,4.37-8.12,0-14.56-4.16-14.56-15.92v-28.7h-3c-1.87,0-2.7-1.35-2.7-4.47V109.8c0-3.12.83-4.48,2.7-4.48h3L522.23,95c.32-1.87,1.88-2.91,4.79-2.91h2.49C532.63,92.12,533.88,93.16,533.88,95Z" fill="#2c3e50"/>
  <path d="M598,108v34.42c0,10,1.25,12.8,1.25,14.36,0,2.28-7.28,3-9.36,3-3.13,0-3.44-4.37-4.06-7.17a20.82,20.82,0,0,1-15.71,7.8c-10.5,0-15.91-5.62-15.91-16.85V108c0-1.87,1.67-2.91,5.51-2.91h2c3.85,0,5.51,1,5.51,2.91v33.8c0,4.89,2.39,7.8,7.8,7.8,4.37,0,8-3.33,10.09-6.45V108c0-1.87,1.66-2.91,5.41-2.91h2.08C596.39,105.12,598,106.16,598,108Z" fill="#2c3e50"/>
  <path d="M642.56,109.59c0,2-1,7.59-2.81,7.59-1.45,0-2.6-.93-5.2-.93-4.68,0-8,4.36-8.73,5.61V157c0,1.88-1.67,2.92-5.52,2.92h-2c-3.85,0-5.51-1-5.51-2.92V122.69c0-9.67-1.25-12.58-1.25-14,0-2.29,7.28-3,9.46-3,3,0,3.33,4.16,4,6.76,2.7-4.27,6.13-7.8,11.64-7.8C641.31,104.6,642.56,107.51,642.56,109.59Z" fill="#2c3e50"/>
  <path d="M695.29,131.53c0,1.56-3.33,5.41-4.68,5.41H661.8c.73,9.57,5.41,13.11,13.42,13.11,7.49,0,12.27-3.64,13.52-3.64,2,0,4.78,5.09,4.78,6.86,0,4.26-11.13,7.18-18.72,7.18-18.2,0-26.52-10.09-26.52-27.56,0-19.76,9.67-28.29,24.86-28.29C688.74,104.6,695.29,115.93,695.29,131.53Zm-33.49-3.84h20.59c0-7.8-3-12.69-9.36-12.69C667,115,662.84,118.64,661.8,127.69Z" fill="#2c3e50"/>
  <polygon points="75.65 37.32 180.35 37.32 128 128 75.65 37.32" fill="#41b883" stroke="#41b883" stroke-linejoin="round" stroke-width="10"/>
  <path 
    d="M75.65,37.32,49.47,82.66h52.35L75.65,128H128l-26.18,45.34h52.36L128,128h52.35L154.18,82.66h52.35L180.35,37.32"
    fill="none" 
    stroke="#34495e" 
    stroke-linejoin="round"
    stroke-linecap="round"
    stroke-width="10"
    stroke-dasharray="800"
    stroke-dashoffset="0"
  >
    <animate 
      attributeName="stroke-dashoffset"
      dur="2.4s"
      values="1000; 0" 
      calcMode="ease"
    />
    
  </path>
  <polygon points="180.35 37.32 154.18 82.66 128 128 101.82 82.66 75.65 37.32 23.3 37.32 49.47 82.66 75.65 128 101.82 173.34 128 218.68 154.18 173.34 180.35 128 206.53 82.66 232.7 37.32 180.35 37.32" fill="none" stroke="#34495e" stroke-linejoin="round" stroke-width="10"/>
</svg>